# xmcd
#
# Track frame offsets:
#	150
#	16345
#	28637
#	38840
#	50880
#	61950
#	71827
#	87592
#	98745
#	110872
#	123222
#	134337
#	147930
#	159742
#	175260
#	189005
#	201672
#	214887
#	226625
#	238342
#	251620
#	266192
#
# Disc length: 3714 seconds
#
# Revision: 0
# Processed by: cddbd v1.5.2PL0 Copyright (c) Steve Scherf et al.
# Submitted via: dBpowerAMP V4.0
#
DISCID=4e0e8016
DTITLE=Intocable - Original Masters - 2  X 1 - Fuego Eterno and Otro Mundo - Intocable - Original Masters - 2  X 1 - Fuego Eterno and Otro Mundo
DYEAR=2007
DGENRE=Tejano
TTITLE0=01 - Siguele
TTITLE1=02 - Vete Ya
TTITLE2=03 - Muchachita
TTITLE3=04 - Me Has Robado La Calma
TTITLE4=05 - Y No Me Quieres
TTITLE5=06 - Que Triste Estoy
TTITLE6=07 - Fuego Eterno
TTITLE7=08 - Si Comprendieras
TTITLE8=09 - Lagrimas De Juventud
TTITLE9=10 - Magico Amor
TTITLE10=11 - No Me Vayas A Dejar
TTITLE11=12 - Coqueta
TTITLE12=13 - Perdoname
TTITLE13=14 - Volviste A Mi
TTITLE14=15 - Alma, Corazon y Vida
TTITLE15=16 - Aprendi A Vivir
TTITLE16=17 - Dulce Nina
TTITLE17=18 - No Tendras Calma
TTITLE18=19 - El Reproche
TTITLE19=20 - Parece Que No
TTITLE20=21 - Besos Sin Condicion
TTITLE21=22 - Caminar
EXTD=Intocable - Original Masters - 2  X 1 - Fuego Eterno and Otro Mundo
EXTT0=
EXTT1=
EXTT2=
EXTT3=
EXTT4=
EXTT5=
EXTT6=
EXTT7=
EXTT8=
EXTT9=
EXTT10=
EXTT11=
EXTT12=
EXTT13=
EXTT14=
EXTT15=
EXTT16=
EXTT17=
EXTT18=
EXTT19=
EXTT20=
EXTT21=
PLAYORDER=
